<svg xmlns="http://www.w3.org/2000/svg" width="94" height="99.991" viewBox="0 0 94 99.991">
  <g id="arrowArrow" transform="translate(2562.5 774.491)">
    <path id="Path_14" data-name="Path 14" d="M86.189,22.451,76.9,20.636l9.073-9.522h0l.647-.679.426-.9.222-.679V7.037l-.222-.912-.426-.68-.647-.68h0l-.647-.68-.647-.447-.869-.233H82.082l-.647.233-.86.447-.647.68L69.772,15.424h0l-.435-1.582L67.4,2.951h0l-.213-1.126L66.748.912,66.313.465,65.666.009h-.647l-.86.223-.647.456-.869.68L48.176,16.327h0l-.656.912-.647,1.136-.647,1.359L45.8,20.869l-.222,1.359-.213,1.359v2.495l1.942,10.881h0l.435,1.582L1.3,87.293h0l-.656.68-.426.9-.222.9V91.37l.222.9.426.68.656.679h0l.647.689.647.447.86.233H5.188l.647-.233.86-.447.647-.689L54.872,43.991l9.286,1.582h0l1.082.233h1.295l1.082-.233,1.295-.447,1.295-.456,1.082-.456,1.073-.68.869-.9L87.705,27.441h0l.647-.68.426-.912L89,25.17l-.222-.9-.213-.456-.647-.68-.869-.456-.86-.223Z" transform="translate(-2560 -772)" fill="#fff" stroke="#30306a" stroke-linecap="round" stroke-linejoin="round" stroke-width="5"/>
  </g>
</svg>
